<!-- Minimal SVG icon set for homepage hero/explainer (for inline use) -->
<svg xmlns="http://www.w3.org/2000/svg" style="display:none">
  <symbol id="icon-report" viewBox="0 0 24 24" fill="none">
    <rect x="3" y="4" width="18" height="16" rx="3" stroke="#0b63f6" stroke-width="2"/>
    <path d="M8 2v4M16 2v4" stroke="#0b63f6" stroke-width="2" stroke-linecap="round"/>
    <path d="M8 11h8M8 15h5" stroke="#0b63f6" stroke-width="2" stroke-linecap="round"/>
  </symbol>
  <symbol id="icon-transparency" viewBox="0 0 24 24" fill="none">
    <circle cx="12" cy="12" r="9" stroke="#0b63f6" stroke-width="2"/>
    <path d="M8 12l2.5 2.5L16 9" stroke="#0b63f6" stroke-width="2" stroke-linecap="round" stroke-linejoin="round"/>
  </symbol>
  <symbol id="icon-trust" viewBox="0 0 24 24" fill="none">
    <path d="M12 3l7 4v5c0 5-3.5 9-7 9s-7-4-7-9V7l7-4z" stroke="#0b63f6" stroke-width="2"/>
    <path d="M9 12l2 2 4-4" stroke="#0b63f6" stroke-width="2" stroke-linecap="round" stroke-linejoin="round"/>
  </symbol>
  <symbol id="icon-audit" viewBox="0 0 24 24" fill="none">
    <rect x="4" y="4" width="16" height="16" rx="4" stroke="#0b63f6" stroke-width="2"/>
    <path d="M8 12h8M8 16h5" stroke="#0b63f6" stroke-width="2" stroke-linecap="round"/>
  </symbol>
</svg>
